<svg width="42" height="21" viewBox="0 0 42 21" fill="none" xmlns="http://www.w3.org/2000/svg">
<path d="M30.005 10.7399C30.005 9.75498 29.7722 8.2797 29.3199 7.36976C28.8676 6.45982 28.2047 5.63303 27.369 4.93659C26.5332 4.24015 25.5919 3.6877 24.5 3.31079C23.4081 2.93388 22.1819 2.74487 21 2.74487C19.8181 2.74487 18.4017 2.93388 17.3098 3.31079C16.2178 3.6877 15.4768 4.24015 14.641 4.93659C13.8053 5.63303 13.1424 6.45982 12.6901 7.36976C12.2378 8.2797 12.005 9.75498 12.005 10.7399L21.005 10.7399H25.505L30.005 10.7399Z" fill="#FFB979"/>
<path d="M21 3C18.0826 3 17.2851 3.49971 15.2222 5C13.1593 6.50029 12.2222 9 12.2222 9" stroke="#EF9848"/>
<path d="M20.6863 3C23.6037 3 24.4012 3.49971 26.4641 5C28.527 6.50029 29.4641 9 29.4641 9" stroke="#EF9848"/>
<path d="M13.3983 1.38253C14.5985 1.8051 16.4594 2.55288 17.7222 3.5C15.963 4.33333 12.4 6.5 12.2222 8.5C11.8509 8.5 12.0311 4.36254 12.1485 2.23373C12.1835 1.59779 12.7976 1.17102 13.3983 1.38253Z" fill="#FFB979" stroke="#EF9848"/>
<path d="M28.3239 1.38253C27.1237 1.8051 25.2628 2.55288 24 3.5C25.7593 4.33333 29.3222 6.5 29.5 8.5C29.8714 8.5 29.6911 4.36254 29.5737 2.23373C29.5387 1.59779 28.9246 1.17102 28.3239 1.38253Z" fill="#FFB979" stroke="#EF9848"/>
<circle cx="18.2222" cy="8" r="0.5" stroke="black"/>
<circle cx="1" cy="1" r="0.5" transform="matrix(-1 0 0 1 24.4641 7)" stroke="black"/>
<path d="M21.3323 9.56356C21.1329 9.79379 20.7757 9.79379 20.5763 9.56356L19.9387 8.82733C19.6583 8.50351 19.8883 8 20.3167 8L21.5919 8C22.0203 8 22.2503 8.50351 21.9699 8.82733L21.3323 9.56356Z" fill="#F88989"/>
<path d="M20.3541 9.56356C20.5535 9.79379 20.9106 9.79379 21.11 9.56356L21.7476 8.82733C22.0281 8.50351 21.798 8 21.3697 8L20.0945 8C19.6661 8 19.4361 8.50351 19.7165 8.82733L20.3541 9.56356Z" fill="#F88989"/>
<rect x="0.5" y="10.5" width="41" height="10" rx="0.5" fill="#D0F1FF" stroke="#5E8896"/>
<path fill-rule="evenodd" clip-rule="evenodd" d="M16.0151 9.5C16.0151 9.53452 16.0132 9.56876 16.0093 9.60269C16.0177 9.7216 16.0169 9.83314 16.0075 9.93747C16.0138 10.0092 16.0183 10.0867 16.0211 10.1699C16.0218 10.1914 16.0224 10.2132 16.0228 10.2354C16.0274 10.453 16.0202 10.7076 16 11C16 11.5523 15.5523 12 15 12C14.7078 12 14.4449 11.8747 14.2621 11.6749C14.0792 11.8747 13.8163 12 13.5241 12C13.2255 12 12.9574 11.8691 12.7741 11.6614C12.5909 11.869 12.3228 12 12.0241 12C11.4719 12 11.0241 11.5523 11.0241 11C11.004 10.7076 10.9968 10.453 11.0013 10.2354C11.0018 10.2132 11.0024 10.1914 11.0031 10.1699C11.0052 10.1052 11.0084 10.044 11.0127 9.98627C10.9987 9.86812 10.9961 9.74035 11.0058 9.60269C11.0019 9.56876 11 9.53452 11 9.5C11 8.67157 12.1193 8 13.5 8L13.5076 8.00001L13.5151 8C14.8958 8 16.0151 8.67157 16.0151 9.5Z" fill="#EF9848"/>
<path fill-rule="evenodd" clip-rule="evenodd" d="M26.0091 9.5C26.0091 9.53452 26.011 9.56876 26.0148 9.60269C26.0065 9.7216 26.0073 9.83314 26.0167 9.93747C26.0104 10.0092 26.0058 10.0867 26.0031 10.1699C26.0024 10.1914 26.0018 10.2132 26.0013 10.2354C25.9968 10.453 26.004 10.7076 26.0242 11C26.0242 11.5523 26.4719 12 27.0242 12C27.3164 12 27.5793 11.8747 27.7621 11.6749C27.9449 11.8747 28.2078 12 28.5 12C28.7987 12 29.0668 11.8691 29.25 11.6614C29.4333 11.869 29.7014 12 30 12C30.5523 12 31 11.5523 31 11C31.0202 10.7076 31.0274 10.453 31.0229 10.2354C31.0224 10.2132 31.0218 10.1914 31.0211 10.1699C31.019 10.1052 31.0157 10.044 31.0115 9.98627C31.0255 9.86812 31.0281 9.74035 31.0184 9.60269C31.0222 9.56876 31.0242 9.53452 31.0242 9.5C31.0242 8.67157 29.9049 8 28.5242 8L28.5166 8.00001L28.5091 8C27.1284 8 26.0091 8.67157 26.0091 9.5Z" fill="#EF9848"/>
<path d="M3.216 14.2H5.232V14.704H4.488V17H3.96V14.704H3.216V14.2ZM6.27322 17H5.76922V14.2H6.27322V15.336H6.34522C6.39589 15.216 6.47055 15.124 6.56922 15.06C6.66789 14.9933 6.78922 14.96 6.93322 14.96C7.03189 14.96 7.12255 14.976 7.20522 15.008C7.28789 15.04 7.35989 15.088 7.42122 15.152C7.48255 15.216 7.53055 15.2987 7.56522 15.4C7.59989 15.4987 7.61722 15.616 7.61722 15.752V17H7.11322V15.872C7.11322 15.7307 7.07855 15.62 7.00922 15.54C6.94255 15.4573 6.84522 15.416 6.71722 15.416C6.56789 15.416 6.45589 15.4667 6.38122 15.568C6.30922 15.6667 6.27322 15.8 6.27322 15.968V17ZM8.65444 16.172C8.6571 16.2307 8.67044 16.2853 8.69444 16.336C8.7211 16.384 8.75577 16.4267 8.79844 16.464C8.84377 16.4987 8.89444 16.5267 8.95044 16.548C9.0091 16.5667 9.07044 16.576 9.13444 16.576C9.25977 16.576 9.35577 16.5547 9.42244 16.512C9.4891 16.4667 9.5371 16.4133 9.56644 16.352L9.99844 16.592C9.97444 16.6427 9.9411 16.696 9.89844 16.752C9.85577 16.8053 9.79977 16.8547 9.73044 16.9C9.66377 16.9453 9.5811 16.9827 9.48244 17.012C9.38644 17.0413 9.2731 17.056 9.14244 17.056C8.9931 17.056 8.8571 17.032 8.73444 16.984C8.61177 16.936 8.5051 16.8667 8.41444 16.776C8.32644 16.6853 8.2571 16.5747 8.20644 16.444C8.15844 16.3133 8.13444 16.1653 8.13444 16V15.976C8.13444 15.824 8.15977 15.6853 8.21044 15.56C8.26377 15.4347 8.33577 15.328 8.42644 15.24C8.5171 15.152 8.62244 15.084 8.74244 15.036C8.8651 14.9853 8.99577 14.96 9.13444 14.96C9.3051 14.96 9.45177 14.9907 9.57444 15.052C9.6971 15.1107 9.79844 15.1867 9.87844 15.28C9.95844 15.3707 10.0171 15.472 10.0544 15.584C10.0918 15.6933 10.1104 15.8 10.1104 15.904V16.172H8.65444ZM9.13044 15.416C9.00244 15.416 8.89844 15.4493 8.81844 15.516C8.73844 15.58 8.68644 15.6547 8.66244 15.74H9.59844C9.58244 15.6467 9.53177 15.5693 9.44644 15.508C9.36377 15.4467 9.25844 15.416 9.13044 15.416ZM13.6129 15.944V17H13.0849V14.2H14.1809C14.3249 14.2 14.4502 14.224 14.5569 14.272C14.6635 14.3173 14.7515 14.3787 14.8209 14.456C14.8929 14.5307 14.9462 14.6173 14.9809 14.716C15.0182 14.812 15.0369 14.9107 15.0369 15.012V15.108C15.0369 15.212 15.0182 15.3147 14.9809 15.416C14.9462 15.5147 14.8929 15.604 14.8209 15.684C14.7515 15.7613 14.6635 15.824 14.5569 15.872C14.4502 15.92 14.3249 15.944 14.1809 15.944H13.6129ZM13.6129 15.44H14.1289C14.2462 15.44 14.3382 15.408 14.4049 15.344C14.4742 15.28 14.5089 15.1973 14.5089 15.096V15.048C14.5089 14.9467 14.4742 14.864 14.4049 14.8C14.3382 14.736 14.2462 14.704 14.1289 14.704H13.6129V15.44ZM16.0021 16.172C16.0048 16.2307 16.0181 16.2853 16.0421 16.336C16.0688 16.384 16.1034 16.4267 16.1461 16.464C16.1914 16.4987 16.2421 16.5267 16.2981 16.548C16.3568 16.5667 16.4181 16.576 16.4821 16.576C16.6074 16.576 16.7034 16.5547 16.7701 16.512C16.8368 16.4667 16.8848 16.4133 16.9141 16.352L17.3461 16.592C17.3221 16.6427 17.2888 16.696 17.2461 16.752C17.2034 16.8053 17.1474 16.8547 17.0781 16.9C17.0114 16.9453 16.9288 16.9827 16.8301 17.012C16.7341 17.0413 16.6208 17.056 16.4901 17.056C16.3408 17.056 16.2048 17.032 16.0821 16.984C15.9594 16.936 15.8528 16.8667 15.7621 16.776C15.6741 16.6853 15.6048 16.5747 15.5541 16.444C15.5061 16.3133 15.4821 16.1653 15.4821 16V15.976C15.4821 15.824 15.5074 15.6853 15.5581 15.56C15.6114 15.4347 15.6834 15.328 15.7741 15.24C15.8648 15.152 15.9701 15.084 16.0901 15.036C16.2128 14.9853 16.3434 14.96 16.4821 14.96C16.6528 14.96 16.7994 14.9907 16.9221 15.052C17.0448 15.1107 17.1461 15.1867 17.2261 15.28C17.3061 15.3707 17.3648 15.472 17.4021 15.584C17.4394 15.6933 17.4581 15.8 17.4581 15.904V16.172H16.0021ZM16.4781 15.416C16.3501 15.416 16.2461 15.4493 16.1661 15.516C16.0861 15.58 16.0341 15.6547 16.0101 15.74H16.9461C16.9301 15.6467 16.8794 15.5693 16.7941 15.508C16.7114 15.4467 16.6061 15.416 16.4781 15.416ZM17.9513 15.016H18.5393V14.2H19.0433V15.016H19.7593V15.496H19.0433V16.4C19.0433 16.48 19.0793 16.52 19.1513 16.52H19.6873V17H18.8473C18.7566 17 18.682 16.9707 18.6233 16.912C18.5673 16.8533 18.5393 16.7787 18.5393 16.688V15.496H17.9513V15.016ZM24.2978 15.056C24.2978 14.944 24.2538 14.8467 24.1658 14.764C24.0804 14.6813 23.9591 14.64 23.8018 14.64C23.6684 14.64 23.5631 14.668 23.4858 14.724C23.4084 14.7773 23.3698 14.8507 23.3698 14.944C23.3698 14.992 23.3791 15.036 23.3978 15.076C23.4164 15.1133 23.4484 15.148 23.4938 15.18C23.5418 15.2093 23.6031 15.236 23.6778 15.26C23.7551 15.284 23.8524 15.3067 23.9698 15.328C24.2631 15.3813 24.4871 15.4707 24.6418 15.596C24.7964 15.7213 24.8738 15.9067 24.8738 16.152V16.2C24.8738 16.3307 24.8498 16.4493 24.8018 16.556C24.7564 16.66 24.6898 16.7493 24.6018 16.824C24.5138 16.8987 24.4071 16.956 24.2818 16.996C24.1564 17.036 24.0151 17.056 23.8578 17.056C23.6738 17.056 23.5111 17.0307 23.3698 16.98C23.2311 16.9267 23.1151 16.8547 23.0218 16.764C22.9284 16.6707 22.8578 16.5627 22.8098 16.44C22.7618 16.3147 22.7378 16.1787 22.7378 16.032V15.912H23.2658V16.008C23.2658 16.176 23.3138 16.3107 23.4098 16.412C23.5084 16.5107 23.6604 16.56 23.8658 16.56C24.0258 16.56 24.1444 16.5253 24.2218 16.456C24.2991 16.3867 24.3378 16.304 24.3378 16.208C24.3378 16.1627 24.3298 16.12 24.3138 16.08C24.2978 16.0373 24.2698 16 24.2298 15.968C24.1898 15.9333 24.1351 15.9027 24.0658 15.876C23.9964 15.8493 23.9084 15.8267 23.8018 15.808C23.6604 15.784 23.5311 15.7533 23.4138 15.716C23.2964 15.676 23.1938 15.624 23.1058 15.56C23.0204 15.496 22.9538 15.416 22.9058 15.32C22.8578 15.224 22.8338 15.1067 22.8338 14.968V14.944C22.8338 14.8293 22.8564 14.724 22.9018 14.628C22.9498 14.5293 23.0151 14.444 23.0978 14.372C23.1831 14.3 23.2844 14.244 23.4018 14.204C23.5218 14.164 23.6551 14.144 23.8018 14.144C23.9671 14.144 24.1138 14.168 24.2418 14.216C24.3698 14.2613 24.4764 14.324 24.5618 14.404C24.6498 14.484 24.7151 14.576 24.7578 14.68C24.8031 14.784 24.8258 14.8933 24.8258 15.008V15.152H24.2978V15.056ZM25.867 17H25.363V14.2H25.867V15.336H25.939C25.9896 15.216 26.0643 15.124 26.163 15.06C26.2616 14.9933 26.383 14.96 26.527 14.96C26.6256 14.96 26.7163 14.976 26.799 15.008C26.8816 15.04 26.9536 15.088 27.015 15.152C27.0763 15.216 27.1243 15.2987 27.159 15.4C27.1936 15.4987 27.211 15.616 27.211 15.752V17H26.707V15.872C26.707 15.7307 26.6723 15.62 26.603 15.54C26.5363 15.4573 26.439 15.416 26.311 15.416C26.1616 15.416 26.0496 15.4667 25.975 15.568C25.903 15.6667 25.867 15.8 25.867 15.968V17ZM28.2482 16.172C28.2509 16.2307 28.2642 16.2853 28.2882 16.336C28.3149 16.384 28.3495 16.4267 28.3922 16.464C28.4375 16.4987 28.4882 16.5267 28.5442 16.548C28.6029 16.5667 28.6642 16.576 28.7282 16.576C28.8535 16.576 28.9495 16.5547 29.0162 16.512C29.0829 16.4667 29.1309 16.4133 29.1602 16.352L29.5922 16.592C29.5682 16.6427 29.5349 16.696 29.4922 16.752C29.4495 16.8053 29.3935 16.8547 29.3242 16.9C29.2575 16.9453 29.1749 16.9827 29.0762 17.012C28.9802 17.0413 28.8669 17.056 28.7362 17.056C28.5869 17.056 28.4509 17.032 28.3282 16.984C28.2055 16.936 28.0989 16.8667 28.0082 16.776C27.9202 16.6853 27.8509 16.5747 27.8002 16.444C27.7522 16.3133 27.7282 16.1653 27.7282 16V15.976C27.7282 15.824 27.7535 15.6853 27.8042 15.56C27.8575 15.4347 27.9295 15.328 28.0202 15.24C28.1109 15.152 28.2162 15.084 28.3362 15.036C28.4589 14.9853 28.5895 14.96 28.7282 14.96C28.8989 14.96 29.0455 14.9907 29.1682 15.052C29.2909 15.1107 29.3922 15.1867 29.4722 15.28C29.5522 15.3707 29.6109 15.472 29.6482 15.584C29.6855 15.6933 29.7042 15.8 29.7042 15.904V16.172H28.2482ZM28.7242 15.416C28.5962 15.416 28.4922 15.4493 28.4122 15.516C28.3322 15.58 28.2802 15.6547 28.2562 15.74H29.1922C29.1762 15.6467 29.1255 15.5693 29.0402 15.508C28.9575 15.4467 28.8522 15.416 28.7242 15.416ZM30.2414 16.52H30.9374V14.68H30.2654V14.2H31.4414V16.52H32.0894V17H30.2414V16.52ZM32.6466 15.016H33.2346V14.2H33.7386V15.016H34.4546V15.496H33.7386V16.4C33.7386 16.48 33.7746 16.52 33.8466 16.52H34.3826V17H33.5426C33.452 17 33.3773 16.9707 33.3186 16.912C33.2626 16.8533 33.2346 16.7787 33.2346 16.688V15.496H32.6466V15.016ZM35.5958 16.172C35.5985 16.2307 35.6118 16.2853 35.6358 16.336C35.6625 16.384 35.6972 16.4267 35.7398 16.464C35.7852 16.4987 35.8358 16.5267 35.8918 16.548C35.9505 16.5667 36.0118 16.576 36.0758 16.576C36.2012 16.576 36.2972 16.5547 36.3638 16.512C36.4305 16.4667 36.4785 16.4133 36.5078 16.352L36.9398 16.592C36.9158 16.6427 36.8825 16.696 36.8398 16.752C36.7972 16.8053 36.7412 16.8547 36.6718 16.9C36.6052 16.9453 36.5225 16.9827 36.4238 17.012C36.3278 17.0413 36.2145 17.056 36.0838 17.056C35.9345 17.056 35.7985 17.032 35.6758 16.984C35.5532 16.936 35.4465 16.8667 35.3558 16.776C35.2678 16.6853 35.1985 16.5747 35.1478 16.444C35.0998 16.3133 35.0758 16.1653 35.0758 16V15.976C35.0758 15.824 35.1012 15.6853 35.1518 15.56C35.2052 15.4347 35.2772 15.328 35.3678 15.24C35.4585 15.152 35.5638 15.084 35.6838 15.036C35.8065 14.9853 35.9372 14.96 36.0758 14.96C36.2465 14.96 36.3932 14.9907 36.5158 15.052C36.6385 15.1107 36.7398 15.1867 36.8198 15.28C36.8998 15.3707 36.9585 15.472 36.9958 15.584C37.0332 15.6933 37.0518 15.8 37.0518 15.904V16.172H35.5958ZM36.0718 15.416C35.9438 15.416 35.8398 15.4493 35.7598 15.516C35.6798 15.58 35.6278 15.6547 35.6038 15.74H36.5398C36.5238 15.6467 36.4732 15.5693 36.3878 15.508C36.3052 15.4467 36.1998 15.416 36.0718 15.416ZM37.5051 15.016H38.3451V15.304H38.4171C38.4544 15.1947 38.5171 15.1107 38.6051 15.052C38.6957 14.9907 38.8037 14.96 38.9291 14.96C39.1264 14.96 39.2851 15.0227 39.4051 15.148C39.5251 15.2707 39.5851 15.4587 39.5851 15.712V15.8L39.0651 15.848V15.792C39.0651 15.6827 39.0371 15.596 38.9811 15.532C38.9251 15.4653 38.8411 15.432 38.7291 15.432C38.6171 15.432 38.5291 15.4707 38.4651 15.548C38.4011 15.6253 38.3691 15.736 38.3691 15.88V16.52H38.8251V17H37.4571V16.52H37.8651V15.496H37.5051V15.016Z" fill="black"/>
</svg>
